<?xml version="1.0" encoding="UTF-8" standalone="no"?>
<!DOCTYPE svg PUBLIC "-//W3C//DTD SVG 1.1//EN" "http://www.w3.org/Graphics/SVG/1.1/DTD/svg11.dtd">
<svg width="100%" height="100%" viewBox="0 0 508 507" version="1.1" xmlns="http://www.w3.org/2000/svg"
     xml:space="preserve"
     style="fill-rule:evenodd;clip-rule:evenodd;stroke-linejoin:round;stroke-miterlimit:2;">
    <g transform="matrix(1,0,0,1,-1279,0)">
        <g id="PhotonVision-Icon-BG" transform="matrix(0.264062,0,0,0.469444,1279.5,0)">
            <rect x="0" y="0" width="1920" height="1080" style="fill:none;"/>
            <clipPath id="_clip1">
                <rect x="0" y="0" width="1920" height="1080"/>
            </clipPath>
            <g clip-path="url(#_clip1)">
                <g transform="matrix(4.27015,0,0,2.40196,-20444.8,-3235.56)">
                    <circle cx="5012.55" cy="1571.77" r="224.918" style="fill:rgb(0,100,146);"/>
                </g>
                <g transform="matrix(4.95901,0,0,2.78944,-13955,-10313.5)">
                    <path d="M3055.09,3977.51C3050.3,3984.25 3045,3990.56 3039.21,3996.35C2987.91,4047.65 2917.1,4038.77 2881.16,3976.54C2845.23,3914.3 2857.71,3822.13 2909.01,3770.83C2960.31,3719.53 3031.13,3728.41 3067.06,3790.64C3069.85,3795.48 3072.35,3800.49 3074.56,3805.67L3039.78,3811.64C3012.82,3769.64 2962.9,3764.58 2926.45,3801.04C2888.89,3838.59 2879.76,3906.07 2906.07,3951.63C2932.37,3997.19 2984.22,4003.69 3021.77,3966.14L3021.89,3966.01L3055.09,3977.51ZM3085.02,3841.47C3090.86,3875.56 3086.6,3912.35 3073.22,3944.57L3043.91,3934.42C3056.74,3907.59 3060.53,3875.54 3054.13,3846.78L3085.02,3841.47Z" style="fill:white;"/>
                </g>
                <g transform="matrix(4.95901,0,0,2.78944,-13955,-3827.86)">
                    <path d="M2906.78,1571.77L3111.02,1642.48L3116.61,1626.34L3147.2,1664.74L3099.42,1675.99L3105,1659.86L2910.03,1592.35C2908.25,1585.69 2907.18,1578.77 2906.78,1571.77ZM2917.45,1517.07L3114.77,1483.17L3111.88,1466.34L3157.2,1485.21L3120.78,1518.13L3117.88,1501.3L2910.22,1536.97C2911.99,1530.09 2914.41,1523.4 2917.45,1517.07Z" style="fill:rgb(255,216,67);"/>
                </g>
            </g>
        </g>
    </g>
</svg>
