<?xml version="1.0" encoding="UTF-8" standalone="no"?>
<!DOCTYPE svg PUBLIC "-//W3C//DTD SVG 1.1//EN" "http://www.w3.org/Graphics/SVG/1.1/DTD/svg11.dtd">
<svg width="100%" height="100%" viewBox="0 0 1920 680" version="1.1" xmlns="http://www.w3.org/2000/svg"
     xml:space="preserve"
     style="fill-rule:evenodd;clip-rule:evenodd;stroke-linejoin:round;stroke-miterlimit:2;">
    <g transform="matrix(1,0,0,1,-1986,-1146)">
        <g id="PhotonVision-Header-noBG" transform="matrix(1,0,0,0.62963,-0.666667,1146)">
            <rect x="1986.67" y="0" width="1920" height="1080" style="fill:none;"/>
            <g transform="matrix(1.87463,0,0,2.97735,-2372.42,-4617.27)">
                <g transform="matrix(136.163,0,0,136.163,2412.48,1719.32)">
                    <path d="M0.061,0L0.061,-0.7L0.362,-0.7C0.409,-0.7 0.452,-0.689 0.491,-0.668C0.53,-0.647 0.561,-0.617 0.584,-0.58C0.607,-0.542 0.619,-0.498 0.619,-0.449C0.619,-0.4 0.607,-0.356 0.584,-0.318C0.561,-0.279 0.53,-0.249 0.491,-0.228C0.452,-0.207 0.409,-0.196 0.362,-0.196L0.229,-0.196L0.229,0L0.061,0ZM0.229,-0.337L0.343,-0.337C0.362,-0.337 0.38,-0.341 0.397,-0.35C0.413,-0.359 0.426,-0.371 0.436,-0.388C0.446,-0.405 0.451,-0.425 0.451,-0.448C0.451,-0.471 0.446,-0.491 0.436,-0.508C0.426,-0.525 0.413,-0.538 0.397,-0.547C0.38,-0.556 0.362,-0.56 0.343,-0.56L0.229,-0.56L0.229,-0.337Z" style="fill:rgb(255,216,67);fill-rule:nonzero;"/>
                </g>
                <g transform="matrix(136.163,0,0,136.163,2500.17,1719.32)">
                    <path d="M0.061,0L0.061,-0.7L0.229,-0.7L0.229,-0.425L0.502,-0.425L0.502,-0.7L0.67,-0.7L0.67,0L0.502,0L0.502,-0.285L0.229,-0.285L0.229,0L0.061,0Z" style="fill:rgb(255,216,67);fill-rule:nonzero;"/>
                </g>
                <g transform="matrix(136.163,0,0,136.163,2599.7,1719.32)">
                    <path d="M0.4,0.013C0.344,0.013 0.293,0.004 0.248,-0.015C0.203,-0.034 0.164,-0.06 0.131,-0.093C0.098,-0.126 0.073,-0.165 0.056,-0.209C0.038,-0.253 0.029,-0.3 0.029,-0.351C0.029,-0.402 0.038,-0.449 0.056,-0.493C0.073,-0.536 0.098,-0.575 0.131,-0.608C0.164,-0.641 0.203,-0.667 0.248,-0.686C0.293,-0.704 0.344,-0.713 0.4,-0.713C0.455,-0.713 0.506,-0.704 0.552,-0.686C0.597,-0.667 0.636,-0.641 0.669,-0.608C0.701,-0.575 0.726,-0.536 0.744,-0.493C0.762,-0.449 0.771,-0.402 0.771,-0.351C0.771,-0.3 0.762,-0.253 0.744,-0.209C0.726,-0.165 0.701,-0.126 0.669,-0.093C0.636,-0.06 0.597,-0.034 0.552,-0.015C0.506,0.004 0.455,0.013 0.4,0.013ZM0.4,-0.13C0.429,-0.13 0.457,-0.136 0.482,-0.147C0.506,-0.158 0.528,-0.173 0.546,-0.193C0.564,-0.213 0.578,-0.236 0.588,-0.264C0.598,-0.291 0.603,-0.32 0.603,-0.351C0.603,-0.382 0.598,-0.411 0.588,-0.438C0.578,-0.465 0.564,-0.488 0.546,-0.508C0.528,-0.528 0.506,-0.544 0.482,-0.555C0.457,-0.566 0.429,-0.571 0.4,-0.571C0.37,-0.571 0.343,-0.566 0.318,-0.555C0.293,-0.544 0.272,-0.528 0.254,-0.508C0.235,-0.488 0.221,-0.465 0.212,-0.438C0.202,-0.411 0.197,-0.382 0.197,-0.351C0.197,-0.32 0.202,-0.291 0.212,-0.264C0.221,-0.236 0.235,-0.213 0.254,-0.193C0.272,-0.173 0.293,-0.158 0.318,-0.147C0.343,-0.136 0.37,-0.13 0.4,-0.13Z" style="fill:rgb(255,216,67);fill-rule:nonzero;"/>
                </g>
                <g transform="matrix(136.163,0,0,136.163,2704.41,1719.32)">
                    <path d="M0.421,0C0.378,0 0.341,-0.01 0.309,-0.029C0.276,-0.048 0.251,-0.073 0.233,-0.105C0.214,-0.137 0.205,-0.173 0.205,-0.212L0.205,-0.56L0.015,-0.56L0.015,-0.7L0.562,-0.7L0.562,-0.56L0.373,-0.56L0.373,-0.197C0.373,-0.182 0.378,-0.168 0.389,-0.157C0.4,-0.146 0.413,-0.14 0.429,-0.14L0.484,-0.14L0.484,0L0.421,0Z" style="fill:rgb(255,216,67);fill-rule:nonzero;"/>
                </g>
                <g transform="matrix(136.163,0,0,136.163,2778.89,1719.32)">
                    <path d="M0.4,0.013C0.344,0.013 0.293,0.004 0.248,-0.015C0.203,-0.034 0.164,-0.06 0.131,-0.093C0.098,-0.126 0.073,-0.165 0.056,-0.209C0.038,-0.253 0.029,-0.3 0.029,-0.351C0.029,-0.402 0.038,-0.449 0.056,-0.493C0.073,-0.536 0.098,-0.575 0.131,-0.608C0.164,-0.641 0.203,-0.667 0.248,-0.686C0.293,-0.704 0.344,-0.713 0.4,-0.713C0.455,-0.713 0.506,-0.704 0.552,-0.686C0.597,-0.667 0.636,-0.641 0.669,-0.608C0.701,-0.575 0.726,-0.536 0.744,-0.493C0.762,-0.449 0.771,-0.402 0.771,-0.351C0.771,-0.3 0.762,-0.253 0.744,-0.209C0.726,-0.165 0.701,-0.126 0.669,-0.093C0.636,-0.06 0.597,-0.034 0.552,-0.015C0.506,0.004 0.455,0.013 0.4,0.013ZM0.4,-0.13C0.429,-0.13 0.457,-0.136 0.482,-0.147C0.506,-0.158 0.528,-0.173 0.546,-0.193C0.564,-0.213 0.578,-0.236 0.588,-0.264C0.598,-0.291 0.603,-0.32 0.603,-0.351C0.603,-0.382 0.598,-0.411 0.588,-0.438C0.578,-0.465 0.564,-0.488 0.546,-0.508C0.528,-0.528 0.506,-0.544 0.482,-0.555C0.457,-0.566 0.429,-0.571 0.4,-0.571C0.37,-0.571 0.343,-0.566 0.318,-0.555C0.293,-0.544 0.272,-0.528 0.254,-0.508C0.235,-0.488 0.221,-0.465 0.212,-0.438C0.202,-0.411 0.197,-0.382 0.197,-0.351C0.197,-0.32 0.202,-0.291 0.212,-0.264C0.221,-0.236 0.235,-0.213 0.254,-0.193C0.272,-0.173 0.293,-0.158 0.318,-0.147C0.343,-0.136 0.37,-0.13 0.4,-0.13Z" style="fill:rgb(255,216,67);fill-rule:nonzero;"/>
                </g>
                <g transform="matrix(136.163,0,0,136.163,2887.69,1719.32)">
                    <path d="M0.058,0L0.058,-0.422C0.058,-0.482 0.071,-0.534 0.096,-0.577C0.121,-0.62 0.157,-0.654 0.202,-0.677C0.247,-0.7 0.298,-0.712 0.356,-0.712C0.414,-0.712 0.465,-0.7 0.51,-0.677C0.555,-0.654 0.59,-0.62 0.616,-0.577C0.641,-0.534 0.654,-0.482 0.654,-0.422L0.654,0L0.488,0L0.488,-0.431C0.488,-0.457 0.483,-0.481 0.471,-0.502C0.461,-0.523 0.445,-0.54 0.426,-0.552C0.407,-0.564 0.383,-0.57 0.356,-0.57C0.329,-0.57 0.306,-0.564 0.286,-0.552C0.266,-0.54 0.251,-0.523 0.24,-0.502C0.229,-0.481 0.224,-0.457 0.224,-0.431L0.224,0L0.058,0Z" style="fill:rgb(255,216,67);fill-rule:nonzero;"/>
                </g>
            </g>
            <g transform="matrix(2.05664,0,0,3.26643,-2793.17,-4723.02)">
                <g transform="matrix(136.163,0,0,136.163,2412.48,1719.32)">
                    <path d="M0.341,0.012C0.314,0.012 0.29,0.005 0.269,-0.008C0.248,-0.021 0.231,-0.043 0.22,-0.072L0.001,-0.7L0.133,-0.7L0.319,-0.121C0.322,-0.114 0.325,-0.109 0.328,-0.106C0.331,-0.102 0.336,-0.1 0.341,-0.1C0.346,-0.1 0.351,-0.102 0.355,-0.106C0.358,-0.109 0.361,-0.114 0.363,-0.121L0.555,-0.7L0.681,-0.7L0.462,-0.072C0.452,-0.044 0.436,-0.023 0.414,-0.009C0.393,0.005 0.368,0.012 0.341,0.012Z" style="fill:white;fill-rule:nonzero;"/>
                </g>
                <g transform="matrix(136.163,0,0,136.163,2505.34,1719.32)">
                    <path d="M0.052,0L0.052,-0.105L0.182,-0.105L0.182,-0.595L0.052,-0.595L0.052,-0.7L0.432,-0.7L0.432,-0.595L0.302,-0.595L0.302,-0.105L0.432,-0.105L0.432,0L0.052,0Z" style="fill:white;fill-rule:nonzero;"/>
                </g>
                <g transform="matrix(136.163,0,0,136.163,2571.25,1719.32)">
                    <path d="M0.071,0L0.071,-0.105L0.372,-0.105C0.391,-0.105 0.408,-0.11 0.423,-0.119C0.437,-0.128 0.448,-0.141 0.457,-0.156C0.465,-0.171 0.469,-0.186 0.469,-0.203C0.469,-0.221 0.465,-0.237 0.457,-0.252C0.449,-0.267 0.438,-0.278 0.424,-0.287C0.409,-0.296 0.393,-0.3 0.374,-0.3L0.249,-0.3C0.21,-0.3 0.174,-0.308 0.143,-0.325C0.113,-0.341 0.088,-0.364 0.07,-0.393C0.052,-0.422 0.043,-0.457 0.043,-0.497C0.043,-0.537 0.052,-0.572 0.069,-0.603C0.086,-0.633 0.11,-0.657 0.14,-0.674C0.17,-0.691 0.204,-0.7 0.242,-0.7L0.543,-0.7L0.543,-0.595L0.253,-0.595C0.236,-0.595 0.22,-0.591 0.206,-0.582C0.192,-0.573 0.181,-0.562 0.173,-0.548C0.166,-0.534 0.162,-0.519 0.162,-0.503C0.162,-0.486 0.166,-0.471 0.173,-0.458C0.181,-0.444 0.192,-0.433 0.205,-0.425C0.219,-0.416 0.235,-0.412 0.252,-0.412L0.38,-0.412C0.423,-0.412 0.46,-0.404 0.491,-0.387C0.522,-0.37 0.546,-0.347 0.563,-0.318C0.58,-0.289 0.588,-0.255 0.588,-0.217C0.588,-0.172 0.579,-0.134 0.562,-0.102C0.544,-0.069 0.52,-0.044 0.49,-0.027C0.459,-0.009 0.425,0 0.387,0L0.071,0Z" style="fill:white;fill-rule:nonzero;"/>
                </g>
                <g transform="matrix(136.163,0,0,136.163,2656.62,1719.32)">
                    <path d="M0.052,0L0.052,-0.105L0.182,-0.105L0.182,-0.595L0.052,-0.595L0.052,-0.7L0.432,-0.7L0.432,-0.595L0.302,-0.595L0.302,-0.105L0.432,-0.105L0.432,0L0.052,0Z" style="fill:white;fill-rule:nonzero;"/>
                </g>
                <g transform="matrix(136.163,0,0,136.163,2722.52,1719.32)">
                    <path d="M0.401,0.013C0.346,0.013 0.296,0.003 0.251,-0.016C0.205,-0.035 0.167,-0.061 0.136,-0.094C0.104,-0.127 0.079,-0.166 0.062,-0.21C0.045,-0.254 0.036,-0.301 0.036,-0.351C0.036,-0.401 0.045,-0.448 0.062,-0.492C0.079,-0.535 0.104,-0.574 0.136,-0.607C0.167,-0.64 0.205,-0.666 0.251,-0.685C0.296,-0.704 0.346,-0.713 0.402,-0.713C0.457,-0.713 0.507,-0.704 0.552,-0.685C0.597,-0.666 0.635,-0.64 0.667,-0.607C0.699,-0.574 0.724,-0.535 0.741,-0.492C0.758,-0.448 0.767,-0.401 0.767,-0.351C0.767,-0.301 0.758,-0.254 0.741,-0.21C0.724,-0.166 0.699,-0.127 0.667,-0.094C0.635,-0.061 0.597,-0.035 0.552,-0.016C0.507,0.003 0.457,0.013 0.401,0.013ZM0.401,-0.093C0.436,-0.093 0.469,-0.099 0.499,-0.112C0.529,-0.125 0.555,-0.143 0.578,-0.167C0.6,-0.19 0.617,-0.218 0.629,-0.249C0.641,-0.28 0.647,-0.314 0.647,-0.351C0.647,-0.388 0.641,-0.422 0.629,-0.453C0.617,-0.484 0.6,-0.511 0.578,-0.535C0.555,-0.558 0.529,-0.576 0.499,-0.589C0.469,-0.602 0.436,-0.608 0.401,-0.608C0.366,-0.608 0.334,-0.602 0.304,-0.589C0.274,-0.576 0.248,-0.558 0.226,-0.535C0.203,-0.511 0.186,-0.484 0.173,-0.453C0.161,-0.422 0.155,-0.388 0.155,-0.351C0.155,-0.314 0.161,-0.28 0.173,-0.249C0.186,-0.218 0.203,-0.19 0.226,-0.167C0.248,-0.143 0.274,-0.125 0.304,-0.112C0.334,-0.099 0.366,-0.093 0.401,-0.093Z" style="fill:white;fill-rule:nonzero;"/>
                </g>
                <g transform="matrix(136.163,0,0,136.163,2831.86,1719.32)">
                    <path d="M0.069,0L0.069,-0.426C0.069,-0.485 0.081,-0.536 0.106,-0.579C0.13,-0.622 0.163,-0.655 0.206,-0.678C0.249,-0.701 0.298,-0.712 0.353,-0.712C0.408,-0.712 0.457,-0.701 0.5,-0.678C0.543,-0.655 0.576,-0.622 0.601,-0.579C0.626,-0.536 0.638,-0.485 0.638,-0.426L0.638,0L0.518,0L0.518,-0.436C0.518,-0.467 0.511,-0.496 0.498,-0.522C0.485,-0.548 0.466,-0.569 0.442,-0.584C0.417,-0.599 0.388,-0.607 0.353,-0.607C0.32,-0.607 0.291,-0.599 0.266,-0.584C0.241,-0.569 0.222,-0.548 0.209,-0.522C0.195,-0.496 0.188,-0.467 0.188,-0.436L0.188,0L0.069,0Z" style="fill:white;fill-rule:nonzero;"/>
                </g>
            </g>
            <g transform="matrix(1.47838,0,0,2.34801,-955.236,-8562.95)">
                <path d="M3055.09,3977.51C3050.3,3984.25 3045,3990.56 3039.21,3996.35C2987.91,4047.65 2917.1,4038.77 2881.16,3976.54C2845.23,3914.3 2857.71,3822.13 2909.01,3770.83C2960.31,3719.53 3031.13,3728.41 3067.06,3790.64C3069.85,3795.48 3072.35,3800.49 3074.56,3805.67L3039.78,3811.64C3012.82,3769.64 2962.9,3764.58 2926.45,3801.04C2888.89,3838.59 2879.76,3906.07 2906.07,3951.63C2932.37,3997.19 2984.22,4003.69 3021.77,3966.14L3021.89,3966.01L3055.09,3977.51ZM3085.02,3841.47C3090.86,3875.56 3086.6,3912.35 3073.22,3944.57L3043.91,3934.42C3056.74,3907.59 3060.53,3875.54 3054.13,3846.78L3085.02,3841.47Z" style="fill:white;"/>
            </g>
            <g transform="matrix(1.47838,0,0,2.34801,-955.236,-3103.7)">
                <path d="M2906.78,1571.77L3111.02,1642.48L3116.61,1626.34L3147.2,1664.74L3099.42,1675.99L3105,1659.86L2910.03,1592.35C2908.25,1585.69 2907.18,1578.77 2906.78,1571.77ZM2917.45,1517.07L3114.77,1483.17L3111.88,1466.34L3157.2,1485.21L3120.78,1518.13L3117.88,1501.3L2910.22,1536.97C2911.99,1530.09 2914.41,1523.4 2917.45,1517.07Z" style="fill:rgb(255,216,67);"/>
            </g>
        </g>
    </g>
</svg>
