<?xml version="1.0" encoding="UTF-8" standalone="no"?>
<svg
   xmlns:dc="http://purl.org/dc/elements/1.1/"
   xmlns:cc="http://creativecommons.org/ns#"
   xmlns:rdf="http://www.w3.org/1999/02/22-rdf-syntax-ns#"
   xmlns:svg="http://www.w3.org/2000/svg"
   xmlns="http://www.w3.org/2000/svg"
   xmlns:sodipodi="http://sodipodi.sourceforge.net/DTD/sodipodi-0.dtd"
   xmlns:inkscape="http://www.inkscape.org/namespaces/inkscape"
   version="1.1"
   width="24"
   height="24"
   viewBox="0 0 24 24"
   id="svg865"
   sodipodi:docname="eyedropper.svg"
   inkscape:version="0.92.4 (unknown)">
  <metadata
     id="metadata871">
    <rdf:RDF>
      <cc:Work
         rdf:about="">
        <dc:format>image/svg+xml</dc:format>
        <dc:type
           rdf:resource="http://purl.org/dc/dcmitype/StillImage" />
      </cc:Work>
    </rdf:RDF>
  </metadata>
  <defs
     id="defs869" />
  <sodipodi:namedview
     pagecolor="#ffffff"
     bordercolor="#666666"
     borderopacity="1"
     objecttolerance="10"
     gridtolerance="10"
     guidetolerance="10"
     inkscape:pageopacity="0"
     inkscape:pageshadow="2"
     inkscape:window-width="1916"
     inkscape:window-height="1040"
     id="namedview867"
     showgrid="false"
     inkscape:zoom="35.541667"
     inkscape:cx="12.112544"
     inkscape:cy="10.171169"
     inkscape:window-x="0"
     inkscape:window-y="1458"
     inkscape:window-maximized="0"
     inkscape:current-layer="svg865" />
  <g
     id="g905"
     inkscape:export-xdpi="77.2733"
     inkscape:export-ydpi="77.2733">
    <path
       inkscape:connector-curvature="0"
       id="path863"
       d="m 12.28,19.4725 -2.13,-2.13 1.42,-1.41 -7.71,-7.71 -1.86,-4.6 1.5,-1.5 4.6,1.86 7.71,7.71 1.41,-1.42 2.13,2.13 -7.07,7.07 m 8.72,-2.59 c 1.17,1.17 1.17,3.07 0,4.24 -1.17,1.17 -3.07,1.17 -4.24,0 l -1.92,-1.92 4.24,-4.24 1.92,1.92 m -14.03,-11.2 -2.47,-1.06 1.06,2.47 7.44,7.43 1.4,-1.4 z" />
    <path
       inkscape:export-ydpi="161.91951"
       inkscape:export-xdpi="161.91951"
       d="m 3.5996094,2.6132812 -1.109375,1.109375 1.7246094,4.2636719 7.6503902,7.6503909 a 0.41783994,0.41783994 0 0 1 0,0.591797 l -1.123046,1.115234 1.537109,1.539062 6.480469,-6.480468 -1.53711,-1.53711 -1.115234,1.123047 a 0.41783994,0.41783994 0 0 1 -0.591797,0 L 7.8652344,4.3378906 Z m 0.9101562,1.5917969 a 0.41783994,0.41783994 0 0 1 0.1542969,0.033203 L 7.1347656,5.296875 a 0.41783994,0.41783994 0 0 1 0.1308594,0.089844 l 7.429687,7.4414062 a 0.41783994,0.41783994 0 0 1 0,0.589844 l -1.40039,1.40039 a 0.41783994,0.41783994 0 0 1 -0.589844,0 L 5.265625,7.3867188 A 0.41783994,0.41783994 0 0 1 5.1757812,7.2558594 L 4.1152344,4.7871094 A 0.41783994,0.41783994 0 0 1 4.5097656,4.2050781 Z m 14.5703124,11.3476559 -3.65039,3.650391 1.625,1.625 c 1.010062,1.010062 2.640328,1.010062 3.65039,0 1.010062,-1.010062 1.010062,-2.640327 0,-3.650391 z"
       id="path889"
       style="fill:#ffffff;stroke-width:21.16535378;stroke-miterlimit:4;stroke-dasharray:none"
       inkscape:original="M 3.5 2.1230469 L 2 3.6230469 L 3.859375 8.2226562 L 11.570312 15.931641 L 10.150391 17.341797 L 12.279297 19.472656 L 19.349609 12.402344 L 17.220703 10.273438 L 15.810547 11.693359 L 8.0996094 3.9824219 L 3.5 2.1230469 z M 4.5 4.6230469 L 6.9707031 5.6816406 L 14.400391 13.123047 L 13 14.523438 L 5.5605469 7.0917969 L 4.5 4.6230469 z M 19.080078 14.962891 L 14.839844 19.203125 L 16.759766 21.123047 C 17.929766 22.293047 19.83 22.293047 21 21.123047 C 22.17 19.953047 22.17 18.052813 21 16.882812 L 19.080078 14.962891 z "
       inkscape:radius="-0.41779816"
       sodipodi:type="inkscape:offset" />
  </g>
</svg>
